<svg width="42.901" height="100.803" viewBox="0 0 42.901 100.803" xmlns="http://www.w3.org/2000/svg"><g id="svgGroup" stroke-linecap="round" fill-rule="evenodd" font-size="9pt" stroke="#ffffff" stroke-width="0" fill="#9394c7" style="stroke:#ffffff;stroke-width:0;fill:#9394c7"><path d="M 22.8 19.701 L 21.4 20.801 L 24.9 32.701 A 47.831 47.831 0 0 0 32.813 30.919 A 55.381 55.381 0 0 0 35.5 30.001 A 13.609 13.609 0 0 1 35.973 32.067 Q 36.129 33.089 36.178 34.258 A 26.139 26.139 0 0 1 36.2 35.351 A 10.365 10.365 0 0 1 34.379 41.208 A 12.476 12.476 0 0 1 34.35 41.251 A 8.296 8.296 0 0 1 29.642 44.633 A 10.866 10.866 0 0 1 29 44.801 Q 22.6 74.301 22.6 86.801 Q 22.6 93.201 25.7 95.901 Q 18.4 100.801 12.7 100.801 Q 2.473 100.801 1.585 89.294 A 29.822 29.822 0 0 1 1.5 87.001 A 46.896 46.896 0 0 1 1.718 82.953 Q 2.588 73.235 6.929 50.417 A 1208.178 1208.178 0 0 1 7.7 46.401 A 121.152 121.152 0 0 0 5.575 46.844 Q 3.279 47.347 1.641 47.816 A 32.331 32.331 0 0 0 0.7 48.101 Q 0 45.901 0 43.601 A 13.607 13.607 0 0 1 0.284 40.73 Q 0.672 38.932 1.592 37.586 A 7.553 7.553 0 0 1 2.7 36.301 Q 5.4 33.801 9.6 33.701 A 28.247 28.247 0 0 1 9.007 29.7 A 35.597 35.597 0 0 1 8.9 26.901 A 35.558 35.558 0 0 1 10.238 16.96 A 29.387 29.387 0 0 1 14.6 7.951 Q 20.3 0.001 30.7 0.001 A 15.371 15.371 0 0 1 34.471 0.437 A 10.588 10.588 0 0 1 39.65 3.401 Q 42.9 6.801 42.9 11.301 A 10.773 10.773 0 0 1 41.808 16.168 A 10.857 10.857 0 0 1 39.8 18.951 A 10.411 10.411 0 0 1 33.436 21.999 A 14.385 14.385 0 0 1 31.7 22.101 A 17.77 17.77 0 0 1 26.287 21.298 A 15.71 15.71 0 0 1 22.8 19.701 Z"/></g></svg>